<svg xmlns="http://www.w3.org/2000/svg" viewBox="0 0 24 24" id="note-text"><defs><linearGradient id="a" x1="3.635" x2="20.365" y1="21.126" y2="4.397" gradientUnits="userSpaceOnUse"><stop offset="0" stop-color="#ea40ad"></stop><stop offset="1" stop-color="#9641ed"></stop></linearGradient></defs><path fill="url(#a)" d="M16.75,2.806V2a.75.75,0,0,0-1.5,0v.75H8.75V2a.75.75,0,0,0-1.5,0v.806c-3.178.279-5,2.3-5,5.694V17c0,3.654,2.1,5.75,5.75,5.75h8c3.654,0,5.75-2.1,5.75-5.75V8.5C21.75,5.11,19.928,3.085,16.75,2.806ZM20.25,17c0,2.859-1.39,4.25-4.25,4.25H8c-2.86,0-4.25-1.391-4.25-4.25V8.5c0-2.592,1.155-3.965,3.5-4.2V5a.75.75,0,0,0,1.5,0V4.25h6.5V5a.75.75,0,0,0,1.5,0V4.3c2.345.236,3.5,1.609,3.5,4.2Zm-3.5-6a.75.75,0,0,1-.75.75H8a.75.75,0,0,1,0-1.5h8A.75.75,0,0,1,16.75,11Zm-4,5a.75.75,0,0,1-.75.75H8a.75.75,0,0,1,0-1.5h4A.75.75,0,0,1,12.75,16Z" data-name="1"></path></svg>